<svg xmlns="http://www.w3.org/2000/svg" xmlns:xlink="http://www.w3.org/1999/xlink" width="19" height="18" viewBox="0 0 19 18">
    <defs>
        <path id="8dikquz0na" d="M17.195 2c-.03.001-.058.004-.087.008h-4.591c-.283-.004-.545.144-.687.388-.142.244-.142.545 0 .789.142.243.404.391.687.387h2.805L7.27 11.624c-.205.196-.287.488-.215.762.071.274.285.488.56.56.273.071.565-.011.761-.216l8.052-8.051v2.805c-.004.282.144.544.388.687.244.142.545.142.789 0 .243-.143.392-.405.388-.687V2.89c.031-.228-.04-.459-.193-.63-.154-.171-.375-.266-.605-.26zM1.565 5.137C.709 5.137 0 5.847 0 6.702v11.733C0 19.291.71 20 1.565 20h11.734c.855 0 1.564-.71 1.564-1.565V8.596L13.3 10.161V18.435H1.565V6.702H9.84l1.564-1.565H1.565z"/>
    </defs>
    <g fill="none" fill-rule="evenodd">
        <g>
            <g>
                <g transform="translate(-128 -734) translate(16 718) translate(112.5 14)">
                    <use fill="#067DFE" fill-rule="nonzero" xlink:href="#8dikquz0na"/>
                </g>
            </g>
        </g>
    </g>
</svg>
